<?xml version="1.0" encoding="utf-8"?>
<svg width="48px" height="48px" viewBox="0 0 48 48" version="1.1" xmlns:xlink="http://www.w3.org/1999/xlink" xmlns="http://www.w3.org/2000/svg">
  <desc>Created with Lunacy</desc>
  <defs>
    <path d="M0 0L48 0L48 48L0 48L0 0Z" id="path_1" />
    <clipPath id="mask_1">
      <use xlink:href="#path_1" />
    </clipPath>
  </defs>
  <g id="Settings-icon">
    <path d="M0 0L48 0L48 48L0 48L0 0Z" id="Background" fill="none" fill-rule="evenodd" stroke="none" />
    <g clip-path="url(#mask_1)">
      <path d="M46.5188 23.2594C46.5188 10.4156 36.1031 0 23.2594 0C10.4156 0 0 10.4156 0 23.2594C0 36.1031 10.4156 46.5188 23.2594 46.5188C36.1031 46.5188 46.5188 36.1031 46.5188 23.2594L46.5188 23.2594Z" transform="translate(0.7406311 0.7406006)" id="Shape" fill="#DB4747" fill-opacity="0.2" fill-rule="evenodd" stroke="none" />
      <path d="M30.0469 16.8375L30.0469 13.2188L26.6156 12.1406C26.325 10.9781 25.8656 9.88125 25.2562 8.87812L26.925 5.68125L24.3656 3.12188L21.1594 4.79063C20.1656 4.19063 19.0781 3.74063 17.9156 3.45L16.8281 0L13.2 0L12.1125 3.45C10.9594 3.74063 9.8625 4.19063 8.86875 4.79063L5.69062 3.12188L3.12187 5.69063L4.79062 8.8875C4.19062 9.89063 3.72187 10.9781 3.43125 12.15L0 13.2281L0 16.8469L3.4125 17.925C3.70313 19.0969 4.1625 20.2031 4.77187 21.2156L3.12187 24.3656L5.68125 26.925L8.84062 25.275C9.85312 25.8844 10.9687 26.3531 12.15 26.6438L13.2187 30.0375L16.8469 30.0375L17.9156 26.6438C19.0969 26.3531 20.2031 25.8844 21.225 25.275L24.3844 26.925L26.9437 24.3656L25.2937 21.1969C25.9031 20.1844 26.3625 19.0781 26.6531 17.9063L30.0469 16.8375L30.0469 16.8375ZM15.0287 23.9781C10.0982 23.9781 6.09686 19.977 6.09686 15.0469C6.09686 10.1167 10.0982 6.1156 15.0287 6.1156C19.9592 6.1156 23.95 10.1167 23.95 15.0469C23.95 19.9875 19.9592 23.9781 15.0287 23.9781L15.0287 23.9781Z" transform="translate(8.971863 8.971863)" id="Shape" fill="#DB4747" fill-rule="evenodd" stroke="none" />
    </g>
  </g>
</svg>